<svg width="247" height="247" viewBox="0 0 247 247" fill="none" xmlns="http://www.w3.org/2000/svg">
<path d="M122.999 44.7895L134.061 111.948L201.22 123.01L134.061 134.073L122.999 201.231L111.936 134.073L44.7775 123.01L111.936 111.948L122.999 44.7895Z" fill="#00B4A6"/>
<path d="M237.173 123.01C237.173 186.06 186.06 237.173 123.01 237.173C59.9593 237.173 8.84695 186.06 8.84695 123.01C8.84695 59.9593 59.9593 8.84695 123.01 8.84695C186.06 8.84695 237.173 59.9593 237.173 123.01ZM123.01 243.51C189.56 243.51 243.51 189.56 243.51 123.01C243.51 56.4595 189.56 2.50977 123.01 2.50977C56.4595 2.50977 2.50977 56.4595 2.50977 123.01C2.50977 189.56 56.4595 243.51 123.01 243.51Z" fill="#00B4A6"/>
<path d="M122.999 44.7895L134.061 111.948L201.22 123.01L134.061 134.073L122.999 201.231L111.936 134.073L44.7775 123.01L111.936 111.948L122.999 44.7895Z" stroke="#00B4A6" stroke-width="5.02083"/>
<path d="M237.173 123.01C237.173 186.06 186.06 237.173 123.01 237.173C59.9593 237.173 8.84695 186.06 8.84695 123.01C8.84695 59.9593 59.9593 8.84695 123.01 8.84695C186.06 8.84695 237.173 59.9593 237.173 123.01ZM123.01 243.51C189.56 243.51 243.51 189.56 243.51 123.01C243.51 56.4595 189.56 2.50977 123.01 2.50977C56.4595 2.50977 2.50977 56.4595 2.50977 123.01C2.50977 189.56 56.4595 243.51 123.01 243.51Z" stroke="#00B4A6" stroke-width="5.02083"/>
</svg>
